<mxfile host="app.diagrams.net" agent="Mozilla/5.0 (Windows NT 10.0; Win64; x64) AppleWebKit/537.36 (KHTML, like Gecko) Chrome/141.0.0.0 Safari/537.36 Edg/141.0.0.0" version="28.2.7">
  <diagram name="适配体产业链全景" id="L82dvTDaglT6Jt4xpFZq">
    <mxGraphModel dx="891" dy="1777" grid="1" gridSize="10" guides="1" tooltips="1" connect="1" arrows="1" fold="1" page="1" pageScale="1" pageWidth="827" pageHeight="1169" math="0" shadow="0">
      <root>
        <mxCell id="0" />
        <mxCell id="1" parent="0" />
        <mxCell id="zZW7-wTPq5pvXGqW-VW9-1" value="" style="rounded=0;whiteSpace=wrap;html=1;fillColor=#F5F8FC;strokeColor=none;" vertex="1" parent="1">
          <mxGeometry y="-60" width="1160" height="760" as="geometry" />
        </mxCell>
        <mxCell id="zZW7-wTPq5pvXGqW-VW9-2" value="&lt;b&gt;上游 · 合成与原料&lt;/b&gt;&lt;br&gt;&lt;font color=#666&gt;技术成熟，国产化率高&lt;/font&gt;" style="text;html=1;strokeColor=none;fillColor=none;align=left;verticalAlign=middle;whiteSpace=wrap;fontColor=#005BAA;fontSize=18;" vertex="1" parent="1">
          <mxGeometry x="60" y="60" width="280" height="40" as="geometry" />
        </mxCell>
        <mxCell id="zZW7-wTPq5pvXGqW-VW9-3" value="&lt;b&gt;固相合成&lt;/b&gt;&lt;br&gt;SELEX 优化/自动化" style="rounded=1;whiteSpace=wrap;html=1;fillColor=#E6F0FF;strokeColor=#005BAA;fontSize=13;" vertex="1" parent="1">
          <mxGeometry x="60" y="110" width="140" height="50" as="geometry" />
        </mxCell>
        <mxCell id="zZW7-wTPq5pvXGqW-VW9-4" value="&lt;b&gt;原料试剂&lt;/b&gt;&lt;br&gt;修饰碱基、固相载体" style="rounded=1;whiteSpace=wrap;html=1;fillColor=#E6F0FF;strokeColor=#005BAA;fontSize=13;" vertex="1" parent="1">
          <mxGeometry x="220" y="110" width="140" height="50" as="geometry" />
        </mxCell>
        <mxCell id="zZW7-wTPq5pvXGqW-VW9-5" value="&lt;b&gt;质控与评价&lt;/b&gt;&lt;br&gt;HPLC、MS、亲和力" style="rounded=1;whiteSpace=wrap;html=1;fillColor=#E6F0FF;strokeColor=#005BAA;fontSize=13;" vertex="1" parent="1">
          <mxGeometry x="380" y="110" width="140" height="50" as="geometry" />
        </mxCell>
        <mxCell id="zZW7-wTPq5pvXGqW-VW9-6" value="&lt;b&gt;中游 · 递送与生产&lt;/b&gt;&lt;br&gt;&lt;font color=#FF6C2C&gt;瓶颈环节，进口依赖&lt;/font&gt;" style="text;html=1;strokeColor=none;fillColor=none;align=left;verticalAlign=middle;whiteSpace=wrap;fontColor=#00A0E3;fontSize=18;" vertex="1" parent="1">
          <mxGeometry x="60" y="170" width="280" height="40" as="geometry" />
        </mxCell>
        <mxCell id="zZW7-wTPq5pvXGqW-VW9-7" value="&lt;b&gt;递送技术开发&lt;/b&gt;&lt;br&gt;脂质体、聚合物、纳米金" style="rounded=1;whiteSpace=wrap;html=1;fillColor=#FFF3E6;strokeColor=#FF6C2C;fontSize=13;" vertex="1" parent="1">
          <mxGeometry x="60" y="220" width="160" height="50" as="geometry" />
        </mxCell>
        <mxCell id="zZW7-wTPq5pvXGqW-VW9-8" value="&lt;b&gt;高纯度分离系统&lt;/b&gt;&lt;br&gt;制备级 HPLC、连续流层析" style="rounded=1;whiteSpace=wrap;html=1;fillColor=#FFF3E6;strokeColor=#FF6C2C;fontSize=13;" vertex="1" parent="1">
          <mxGeometry x="240" y="220" width="160" height="50" as="geometry" />
        </mxCell>
        <mxCell id="zZW7-wTPq5pvXGqW-VW9-9" value="&lt;b&gt;CRO / CDMO&lt;/b&gt;&lt;br&gt;产能不足，服务断档" style="rounded=1;whiteSpace=wrap;html=1;fillColor=#FFF3E6;strokeColor=#FF6C2C;fontSize=13;" vertex="1" parent="1">
          <mxGeometry x="420" y="220" width="140" height="50" as="geometry" />
        </mxCell>
        <mxCell id="zZW7-wTPq5pvXGqW-VW9-10" value="&lt;b&gt;下游 · 应用与市场&lt;/b&gt;&lt;br&gt;&lt;font color=#666&gt;需求旺盛，快速放量&lt;/font&gt;" style="text;html=1;strokeColor=none;fillColor=none;align=left;verticalAlign=middle;whiteSpace=wrap;fontColor=#FF6C2C;fontSize=18;" parent="1">
          <mxGeometry x="60" y="340" width="280" height="40" as="geometry" />
        </mxCell>
        <mxCell id="zZW7-wTPq5pvXGqW-VW9-11" value="&lt;b&gt;诊断试剂&lt;/b&gt;&lt;br&gt;重金属、农残快检" style="rounded=1;whiteSpace=wrap;html=1;fillColor=#FFECE6;strokeColor=#FF6C2C;fontSize=13;" vertex="1" parent="1">
          <mxGeometry x="60" y="320" width="140" height="50" as="geometry" />
        </mxCell>
        <mxCell id="zZW7-wTPq5pvXGqW-VW9-12" value="&lt;b&gt;靶向治疗&lt;/b&gt;&lt;br&gt;肿瘤、心血管、免疫" style="rounded=1;whiteSpace=wrap;html=1;fillColor=#FFECE6;strokeColor=#FF6C2C;fontSize=13;" vertex="1" parent="1">
          <mxGeometry x="220" y="320" width="140" height="50" as="geometry" />
        </mxCell>
        <mxCell id="zZW7-wTPq5pvXGqW-VW9-13" value="&lt;b&gt;分子影像&lt;/b&gt;&lt;br&gt;放射性/荧光探针" style="rounded=1;whiteSpace=wrap;html=1;fillColor=#FFECE6;strokeColor=#FF6C2C;fontSize=13;" vertex="1" parent="1">
          <mxGeometry x="380" y="320" width="140" height="50" as="geometry" />
        </mxCell>
        <mxCell id="zZW7-wTPq5pvXGqW-VW9-16" value="&lt;b&gt;适配体（Aptamer）产业链流程图&lt;/b&gt;" style="text;html=1;strokeColor=none;fillColor=none;align=center;verticalAlign=middle;whiteSpace=wrap;fontColor=#0A1F3B;fontSize=22;" vertex="1" parent="1">
          <mxGeometry x="480" y="20" width="280" height="30" as="geometry" />
        </mxCell>
        <mxCell id="zZW7-wTPq5pvXGqW-VW9-17" value="&lt;b&gt;⚠ 中游瓶颈：高纯度分离设备 &amp; 规模化递送系统仍依赖进口&lt;/b&gt;" style="rounded=1;whiteSpace=wrap;html=1;fillColor=#FF6C2C;strokeColor=none;fontColor=#ffffff;fontSize=13;" vertex="1" parent="1">
          <mxGeometry x="580" y="220" width="320" height="50" as="geometry" />
        </mxCell>
        <mxCell id="zZW7-wTPq5pvXGqW-VW9-18" value="&lt;b&gt;下游 · 诊断与治疗&lt;/b&gt;" style="text;html=1;strokeColor=none;fillColor=none;align=left;verticalAlign=middle;whiteSpace=wrap;fontColor=#00A0E3;fontSize=18;" vertex="1" parent="1">
          <mxGeometry x="60" y="280" width="280" height="40" as="geometry" />
        </mxCell>
      </root>
    </mxGraphModel>
  </diagram>
</mxfile>
